<?xml version="1.0" encoding="utf-8" standalone="no"?>
<!DOCTYPE svg PUBLIC "-//W3C//DTD SVG 1.1//EN"
  "http://www.w3.org/Graphics/SVG/1.1/DTD/svg11.dtd">
<svg xmlns:xlink="http://www.w3.org/1999/xlink" width="613.488359pt" height="442.666948pt" viewBox="0 0 613.488359 442.666948" xmlns="http://www.w3.org/2000/svg" version="1.1">
 <metadata>
  <rdf:RDF xmlns:dc="http://purl.org/dc/elements/1.1/" xmlns:cc="http://creativecommons.org/ns#" xmlns:rdf="http://www.w3.org/1999/02/22-rdf-syntax-ns#">
   <cc:Work>
    <dc:type rdf:resource="http://purl.org/dc/dcmitype/StillImage"/>
    <dc:date>2026-07-07T01:41:47.962811</dc:date>
    <dc:format>image/svg+xml</dc:format>
    <dc:creator>
     <cc:Agent>
      <dc:title>Matplotlib v3.11.0, https://matplotlib.org/</dc:title>
     </cc:Agent>
    </dc:creator>
   </cc:Work>
  </rdf:RDF>
 </metadata>
 <defs>
  <style type="text/css">*{stroke-linejoin: round; stroke-linecap: butt}</style>
 </defs>
 <g id="figure_1">
  <g id="patch_1">
   <path d="M 0 442.666948 
L 613.488359 442.666948 
L 613.488359 0 
L 0 0 
z
" style="fill: #ffffff"/>
  </g>
  <g id="axes_1">
   <g id="patch_2">
    <path d="M 48.288359 382.680686 
L 606.288359 382.680686 
L 606.288359 38.952686 
L 48.288359 38.952686 
z
" style="fill: #ffffff"/>
   </g>
   <g id="matplotlib.axis_1">
    <g id="xtick_1">
     <g id="line2d_1">
      <defs>
       <path id="m5780e63c7d" d="M 0 0 
L 0 3.5 
" style="stroke: #000000; stroke-width: 0.8"/>
      </defs>
      <g>
       <use xlink:href="#m5780e63c7d" x="114.148558" y="382.680686" style="stroke: #000000; stroke-width: 0.8"/>
      </g>
     </g>
     <g id="text_1">
      <!-- -P 1 -->
      <g transform="translate(104.559495 397.278342) scale(0.1 -0.1)">
       <defs>
        <path id="DejaVuSans-10" d="M 313 2009 
L 1997 2009 
L 1997 1497 
L 313 1497 
L 313 2009 
z
" transform="scale(0.015625)"/>
        <path id="DejaVuSans-33" d="M 1259 4147 
L 1259 2394 
L 2053 2394 
Q 2494 2394 2734 2622 
Q 2975 2850 2975 3272 
Q 2975 3691 2734 3919 
Q 2494 4147 2053 4147 
L 1259 4147 
z
M 628 4666 
L 2053 4666 
Q 2838 4666 3239 4311 
Q 3641 3956 3641 3272 
Q 3641 2581 3239 2228 
Q 2838 1875 2053 1875 
L 1259 1875 
L 1259 0 
L 628 0 
L 628 4666 
z
" transform="scale(0.015625)"/>
        <path id="DejaVuSans-3" transform="scale(0.015625)"/>
        <path id="DejaVuSans-14" d="M 794 531 
L 1825 531 
L 1825 4091 
L 703 3866 
L 703 4441 
L 1819 4666 
L 2450 4666 
L 2450 531 
L 3481 531 
L 3481 0 
L 794 0 
L 794 531 
z
" transform="scale(0.015625)"/>
       </defs>
       <use xlink:href="#DejaVuSans-10"/>
       <use xlink:href="#DejaVuSans-33" transform="translate(36.078125 0)"/>
       <use xlink:href="#DejaVuSans-3" transform="translate(96.375 0)"/>
       <use xlink:href="#DejaVuSans-14" transform="translate(128.15625 0)"/>
      </g>
     </g>
    </g>
    <g id="xtick_2">
     <g id="line2d_2">
      <g>
       <use xlink:href="#m5780e63c7d" x="220.718459" y="382.680686" style="stroke: #000000; stroke-width: 0.8"/>
      </g>
     </g>
     <g id="text_2">
      <!-- -P 2 -->
      <g transform="translate(211.129396 397.278342) scale(0.1 -0.1)">
       <defs>
        <path id="DejaVuSans-15" d="M 1228 531 
L 3431 531 
L 3431 0 
L 469 0 
L 469 531 
Q 828 903 1448 1529 
Q 2069 2156 2228 2338 
Q 2531 2678 2651 2914 
Q 2772 3150 2772 3378 
Q 2772 3750 2511 3984 
Q 2250 4219 1831 4219 
Q 1534 4219 1204 4116 
Q 875 4013 500 3803 
L 500 4441 
Q 881 4594 1212 4672 
Q 1544 4750 1819 4750 
Q 2544 4750 2975 4387 
Q 3406 4025 3406 3419 
Q 3406 3131 3298 2873 
Q 3191 2616 2906 2266 
Q 2828 2175 2409 1742 
Q 1991 1309 1228 531 
z
" transform="scale(0.015625)"/>
       </defs>
       <use xlink:href="#DejaVuSans-10"/>
       <use xlink:href="#DejaVuSans-33" transform="translate(36.078125 0)"/>
       <use xlink:href="#DejaVuSans-3" transform="translate(96.375 0)"/>
       <use xlink:href="#DejaVuSans-15" transform="translate(128.15625 0)"/>
      </g>
     </g>
    </g>
    <g id="xtick_3">
     <g id="line2d_3">
      <g>
       <use xlink:href="#m5780e63c7d" x="327.288359" y="382.680686" style="stroke: #000000; stroke-width: 0.8"/>
      </g>
     </g>
     <g id="text_3">
      <!-- -P 4 -->
      <g transform="translate(317.699297 397.278342) scale(0.1 -0.1)">
       <defs>
        <path id="DejaVuSans-17" d="M 2419 4116 
L 825 1625 
L 2419 1625 
L 2419 4116 
z
M 2253 4666 
L 3047 4666 
L 3047 1625 
L 3713 1625 
L 3713 1100 
L 3047 1100 
L 3047 0 
L 2419 0 
L 2419 1100 
L 313 1100 
L 313 1709 
L 2253 4666 
z
" transform="scale(0.015625)"/>
       </defs>
       <use xlink:href="#DejaVuSans-10"/>
       <use xlink:href="#DejaVuSans-33" transform="translate(36.078125 0)"/>
       <use xlink:href="#DejaVuSans-3" transform="translate(96.375 0)"/>
       <use xlink:href="#DejaVuSans-17" transform="translate(128.15625 0)"/>
      </g>
     </g>
    </g>
    <g id="xtick_4">
     <g id="line2d_4">
      <g>
       <use xlink:href="#m5780e63c7d" x="433.85826" y="382.680686" style="stroke: #000000; stroke-width: 0.8"/>
      </g>
     </g>
     <g id="text_4">
      <!-- -P 8 -->
      <g transform="translate(424.269198 397.278342) scale(0.1 -0.1)">
       <defs>
        <path id="DejaVuSans-1b" d="M 2034 2216 
Q 1584 2216 1326 1975 
Q 1069 1734 1069 1313 
Q 1069 891 1326 650 
Q 1584 409 2034 409 
Q 2484 409 2743 651 
Q 3003 894 3003 1313 
Q 3003 1734 2745 1975 
Q 2488 2216 2034 2216 
z
M 1403 2484 
Q 997 2584 770 2862 
Q 544 3141 544 3541 
Q 544 4100 942 4425 
Q 1341 4750 2034 4750 
Q 2731 4750 3128 4425 
Q 3525 4100 3525 3541 
Q 3525 3141 3298 2862 
Q 3072 2584 2669 2484 
Q 3125 2378 3379 2068 
Q 3634 1759 3634 1313 
Q 3634 634 3220 271 
Q 2806 -91 2034 -91 
Q 1263 -91 848 271 
Q 434 634 434 1313 
Q 434 1759 690 2068 
Q 947 2378 1403 2484 
z
M 1172 3481 
Q 1172 3119 1398 2916 
Q 1625 2713 2034 2713 
Q 2441 2713 2670 2916 
Q 2900 3119 2900 3481 
Q 2900 3844 2670 4047 
Q 2441 4250 2034 4250 
Q 1625 4250 1398 4047 
Q 1172 3844 1172 3481 
z
" transform="scale(0.015625)"/>
       </defs>
       <use xlink:href="#DejaVuSans-10"/>
       <use xlink:href="#DejaVuSans-33" transform="translate(36.078125 0)"/>
       <use xlink:href="#DejaVuSans-3" transform="translate(96.375 0)"/>
       <use xlink:href="#DejaVuSans-1b" transform="translate(128.15625 0)"/>
      </g>
     </g>
    </g>
    <g id="xtick_5">
     <g id="line2d_5">
      <g>
       <use xlink:href="#m5780e63c7d" x="540.428161" y="382.680686" style="stroke: #000000; stroke-width: 0.8"/>
      </g>
     </g>
     <g id="text_5">
      <!-- -P 16 -->
      <g transform="translate(527.657848 397.278342) scale(0.1 -0.1)">
       <defs>
        <path id="DejaVuSans-19" d="M 2113 2584 
Q 1688 2584 1439 2293 
Q 1191 2003 1191 1497 
Q 1191 994 1439 701 
Q 1688 409 2113 409 
Q 2538 409 2786 701 
Q 3034 994 3034 1497 
Q 3034 2003 2786 2293 
Q 2538 2584 2113 2584 
z
M 3366 4563 
L 3366 3988 
Q 3128 4100 2886 4159 
Q 2644 4219 2406 4219 
Q 1781 4219 1451 3797 
Q 1122 3375 1075 2522 
Q 1259 2794 1537 2939 
Q 1816 3084 2150 3084 
Q 2853 3084 3261 2657 
Q 3669 2231 3669 1497 
Q 3669 778 3244 343 
Q 2819 -91 2113 -91 
Q 1303 -91 875 529 
Q 447 1150 447 2328 
Q 447 3434 972 4092 
Q 1497 4750 2381 4750 
Q 2619 4750 2861 4703 
Q 3103 4656 3366 4563 
z
" transform="scale(0.015625)"/>
       </defs>
       <use xlink:href="#DejaVuSans-10"/>
       <use xlink:href="#DejaVuSans-33" transform="translate(36.078125 0)"/>
       <use xlink:href="#DejaVuSans-3" transform="translate(96.375 0)"/>
       <use xlink:href="#DejaVuSans-14" transform="translate(128.15625 0)"/>
       <use xlink:href="#DejaVuSans-19" transform="translate(191.78125 0)"/>
      </g>
     </g>
    </g>
    <g id="text_6">
     <!-- iperf3 parallel TCP streams -->
     <g transform="translate(253.150078 412.038967) scale(0.11 -0.11)">
      <defs>
       <path id="DejaVuSans-4c" d="M 603 3500 
L 1178 3500 
L 1178 0 
L 603 0 
L 603 3500 
z
M 603 4863 
L 1178 4863 
L 1178 4134 
L 603 4134 
L 603 4863 
z
" transform="scale(0.015625)"/>
       <path id="DejaVuSans-53" d="M 1159 525 
L 1159 -1331 
L 581 -1331 
L 581 3500 
L 1159 3500 
L 1159 2969 
Q 1341 3281 1617 3432 
Q 1894 3584 2278 3584 
Q 2916 3584 3314 3078 
Q 3713 2572 3713 1747 
Q 3713 922 3314 415 
Q 2916 -91 2278 -91 
Q 1894 -91 1617 61 
Q 1341 213 1159 525 
z
M 3116 1747 
Q 3116 2381 2855 2742 
Q 2594 3103 2138 3103 
Q 1681 3103 1420 2742 
Q 1159 2381 1159 1747 
Q 1159 1113 1420 752 
Q 1681 391 2138 391 
Q 2594 391 2855 752 
Q 3116 1113 3116 1747 
z
" transform="scale(0.015625)"/>
       <path id="DejaVuSans-48" d="M 3597 1894 
L 3597 1613 
L 953 1613 
Q 991 1019 1311 708 
Q 1631 397 2203 397 
Q 2534 397 2845 478 
Q 3156 559 3463 722 
L 3463 178 
Q 3153 47 2828 -22 
Q 2503 -91 2169 -91 
Q 1331 -91 842 396 
Q 353 884 353 1716 
Q 353 2575 817 3079 
Q 1281 3584 2069 3584 
Q 2775 3584 3186 3129 
Q 3597 2675 3597 1894 
z
M 3022 2063 
Q 3016 2534 2758 2815 
Q 2500 3097 2075 3097 
Q 1594 3097 1305 2825 
Q 1016 2553 972 2059 
L 3022 2063 
z
" transform="scale(0.015625)"/>
       <path id="DejaVuSans-55" d="M 2631 2963 
Q 2534 3019 2420 3045 
Q 2306 3072 2169 3072 
Q 1681 3072 1420 2755 
Q 1159 2438 1159 1844 
L 1159 0 
L 581 0 
L 581 3500 
L 1159 3500 
L 1159 2956 
Q 1341 3275 1631 3429 
Q 1922 3584 2338 3584 
Q 2397 3584 2469 3576 
Q 2541 3569 2628 3553 
L 2631 2963 
z
" transform="scale(0.015625)"/>
       <path id="DejaVuSans-49" d="M 2375 4863 
L 2375 4384 
L 1825 4384 
Q 1516 4384 1395 4259 
Q 1275 4134 1275 3809 
L 1275 3500 
L 2222 3500 
L 2222 3053 
L 1275 3053 
L 1275 0 
L 697 0 
L 697 3053 
L 147 3053 
L 147 3500 
L 697 3500 
L 697 3744 
Q 697 4328 969 4595 
Q 1241 4863 1831 4863 
L 2375 4863 
z
" transform="scale(0.015625)"/>
       <path id="DejaVuSans-16" d="M 2597 2516 
Q 3050 2419 3304 2112 
Q 3559 1806 3559 1356 
Q 3559 666 3084 287 
Q 2609 -91 1734 -91 
Q 1441 -91 1130 -33 
Q 819 25 488 141 
L 488 750 
Q 750 597 1062 519 
Q 1375 441 1716 441 
Q 2309 441 2620 675 
Q 2931 909 2931 1356 
Q 2931 1769 2642 2001 
Q 2353 2234 1838 2234 
L 1294 2234 
L 1294 2753 
L 1863 2753 
Q 2328 2753 2575 2939 
Q 2822 3125 2822 3475 
Q 2822 3834 2567 4026 
Q 2313 4219 1838 4219 
Q 1578 4219 1281 4162 
Q 984 4106 628 3988 
L 628 4550 
Q 988 4650 1302 4700 
Q 1616 4750 1894 4750 
Q 2613 4750 3031 4423 
Q 3450 4097 3450 3541 
Q 3450 3153 3228 2886 
Q 3006 2619 2597 2516 
z
" transform="scale(0.015625)"/>
       <path id="DejaVuSans-44" d="M 2194 1759 
Q 1497 1759 1228 1600 
Q 959 1441 959 1056 
Q 959 750 1161 570 
Q 1363 391 1709 391 
Q 2188 391 2477 730 
Q 2766 1069 2766 1631 
L 2766 1759 
L 2194 1759 
z
M 3341 1997 
L 3341 0 
L 2766 0 
L 2766 531 
Q 2569 213 2275 61 
Q 1981 -91 1556 -91 
Q 1019 -91 701 211 
Q 384 513 384 1019 
Q 384 1609 779 1909 
Q 1175 2209 1959 2209 
L 2766 2209 
L 2766 2266 
Q 2766 2663 2505 2880 
Q 2244 3097 1772 3097 
Q 1472 3097 1187 3025 
Q 903 2953 641 2809 
L 641 3341 
Q 956 3463 1253 3523 
Q 1550 3584 1831 3584 
Q 2591 3584 2966 3190 
Q 3341 2797 3341 1997 
z
" transform="scale(0.015625)"/>
       <path id="DejaVuSans-4f" d="M 603 4863 
L 1178 4863 
L 1178 0 
L 603 0 
L 603 4863 
z
" transform="scale(0.015625)"/>
       <path id="DejaVuSans-37" d="M -19 4666 
L 3928 4666 
L 3928 4134 
L 2272 4134 
L 2272 0 
L 1638 0 
L 1638 4134 
L -19 4134 
L -19 4666 
z
" transform="scale(0.015625)"/>
       <path id="DejaVuSans-26" d="M 4122 4306 
L 4122 3641 
Q 3803 3938 3442 4084 
Q 3081 4231 2675 4231 
Q 1875 4231 1450 3742 
Q 1025 3253 1025 2328 
Q 1025 1406 1450 917 
Q 1875 428 2675 428 
Q 3081 428 3442 575 
Q 3803 722 4122 1019 
L 4122 359 
Q 3791 134 3420 21 
Q 3050 -91 2638 -91 
Q 1578 -91 968 557 
Q 359 1206 359 2328 
Q 359 3453 968 4101 
Q 1578 4750 2638 4750 
Q 3056 4750 3426 4639 
Q 3797 4528 4122 4306 
z
" transform="scale(0.015625)"/>
       <path id="DejaVuSans-56" d="M 2834 3397 
L 2834 2853 
Q 2591 2978 2328 3040 
Q 2066 3103 1784 3103 
Q 1356 3103 1142 2972 
Q 928 2841 928 2578 
Q 928 2378 1081 2264 
Q 1234 2150 1697 2047 
L 1894 2003 
Q 2506 1872 2764 1633 
Q 3022 1394 3022 966 
Q 3022 478 2636 193 
Q 2250 -91 1575 -91 
Q 1294 -91 989 -36 
Q 684 19 347 128 
L 347 722 
Q 666 556 975 473 
Q 1284 391 1588 391 
Q 1994 391 2212 530 
Q 2431 669 2431 922 
Q 2431 1156 2273 1281 
Q 2116 1406 1581 1522 
L 1381 1569 
Q 847 1681 609 1914 
Q 372 2147 372 2553 
Q 372 3047 722 3315 
Q 1072 3584 1716 3584 
Q 2034 3584 2315 3537 
Q 2597 3491 2834 3397 
z
" transform="scale(0.015625)"/>
       <path id="DejaVuSans-57" d="M 1172 4494 
L 1172 3500 
L 2356 3500 
L 2356 3053 
L 1172 3053 
L 1172 1153 
Q 1172 725 1289 603 
Q 1406 481 1766 481 
L 2356 481 
L 2356 0 
L 1766 0 
Q 1100 0 847 248 
Q 594 497 594 1153 
L 594 3053 
L 172 3053 
L 172 3500 
L 594 3500 
L 594 4494 
L 1172 4494 
z
" transform="scale(0.015625)"/>
       <path id="DejaVuSans-50" d="M 3328 2828 
Q 3544 3216 3844 3400 
Q 4144 3584 4550 3584 
Q 5097 3584 5394 3201 
Q 5691 2819 5691 2113 
L 5691 0 
L 5113 0 
L 5113 2094 
Q 5113 2597 4934 2840 
Q 4756 3084 4391 3084 
Q 3944 3084 3684 2787 
Q 3425 2491 3425 1978 
L 3425 0 
L 2847 0 
L 2847 2094 
Q 2847 2600 2669 2842 
Q 2491 3084 2119 3084 
Q 1678 3084 1418 2786 
Q 1159 2488 1159 1978 
L 1159 0 
L 581 0 
L 581 3500 
L 1159 3500 
L 1159 2956 
Q 1356 3278 1631 3431 
Q 1906 3584 2284 3584 
Q 2666 3584 2933 3390 
Q 3200 3197 3328 2828 
z
" transform="scale(0.015625)"/>
      </defs>
      <use xlink:href="#DejaVuSans-4c"/>
      <use xlink:href="#DejaVuSans-53" transform="translate(27.78125 0)"/>
      <use xlink:href="#DejaVuSans-48" transform="translate(91.265625 0)"/>
      <use xlink:href="#DejaVuSans-55" transform="translate(152.796875 0)"/>
      <use xlink:href="#DejaVuSans-49" transform="translate(193.90625 0)"/>
      <use xlink:href="#DejaVuSans-16" transform="translate(229.109375 0)"/>
      <use xlink:href="#DejaVuSans-3" transform="translate(292.734375 0)"/>
      <use xlink:href="#DejaVuSans-53" transform="translate(324.515625 0)"/>
      <use xlink:href="#DejaVuSans-44" transform="translate(388 0)"/>
      <use xlink:href="#DejaVuSans-55" transform="translate(449.28125 0)"/>
      <use xlink:href="#DejaVuSans-44" transform="translate(490.390625 0)"/>
      <use xlink:href="#DejaVuSans-4f" transform="translate(551.671875 0)"/>
      <use xlink:href="#DejaVuSans-4f" transform="translate(579.453125 0)"/>
      <use xlink:href="#DejaVuSans-48" transform="translate(607.234375 0)"/>
      <use xlink:href="#DejaVuSans-4f" transform="translate(668.765625 0)"/>
      <use xlink:href="#DejaVuSans-3" transform="translate(696.546875 0)"/>
      <use xlink:href="#DejaVuSans-37" transform="translate(728.328125 0)"/>
      <use xlink:href="#DejaVuSans-26" transform="translate(783.546875 0)"/>
      <use xlink:href="#DejaVuSans-33" transform="translate(853.375 0)"/>
      <use xlink:href="#DejaVuSans-3" transform="translate(913.671875 0)"/>
      <use xlink:href="#DejaVuSans-56" transform="translate(945.453125 0)"/>
      <use xlink:href="#DejaVuSans-57" transform="translate(997.546875 0)"/>
      <use xlink:href="#DejaVuSans-55" transform="translate(1036.75 0)"/>
      <use xlink:href="#DejaVuSans-48" transform="translate(1075.65625 0)"/>
      <use xlink:href="#DejaVuSans-44" transform="translate(1137.1875 0)"/>
      <use xlink:href="#DejaVuSans-50" transform="translate(1198.46875 0)"/>
      <use xlink:href="#DejaVuSans-56" transform="translate(1295.875 0)"/>
     </g>
    </g>
   </g>
   <g id="matplotlib.axis_2">
    <g id="ytick_1">
     <g id="line2d_6">
      <path d="M 48.288359 382.680686 
L 606.288359 382.680686 
" clip-path="url(#p21c598da0f)" style="fill: none; stroke-dasharray: 0.8,1.32; stroke-dashoffset: 0; stroke: #bbbbbb; stroke-width: 0.8"/>
     </g>
     <g id="line2d_7">
      <defs>
       <path id="m4196a3143d" d="M 0 0 
L -3.5 0 
" style="stroke: #000000; stroke-width: 0.8"/>
      </defs>
      <g>
       <use xlink:href="#m4196a3143d" x="48.288359" y="382.680686" style="stroke: #000000; stroke-width: 0.8"/>
      </g>
     </g>
     <g id="text_7">
      <!-- 0 -->
      <g transform="translate(34.925859 386.479514) scale(0.1 -0.1)">
       <defs>
        <path id="DejaVuSans-13" d="M 2034 4250 
Q 1547 4250 1301 3770 
Q 1056 3291 1056 2328 
Q 1056 1369 1301 889 
Q 1547 409 2034 409 
Q 2525 409 2770 889 
Q 3016 1369 3016 2328 
Q 3016 3291 2770 3770 
Q 2525 4250 2034 4250 
z
M 2034 4750 
Q 2819 4750 3233 4129 
Q 3647 3509 3647 2328 
Q 3647 1150 3233 529 
Q 2819 -91 2034 -91 
Q 1250 -91 836 529 
Q 422 1150 422 2328 
Q 422 3509 836 4129 
Q 1250 4750 2034 4750 
z
" transform="scale(0.015625)"/>
       </defs>
       <use xlink:href="#DejaVuSans-13"/>
      </g>
     </g>
    </g>
    <g id="ytick_2">
     <g id="line2d_8">
      <path d="M 48.288359 342.525545 
L 606.288359 342.525545 
" clip-path="url(#p21c598da0f)" style="fill: none; stroke-dasharray: 0.8,1.32; stroke-dashoffset: 0; stroke: #bbbbbb; stroke-width: 0.8"/>
     </g>
     <g id="line2d_9">
      <g>
       <use xlink:href="#m4196a3143d" x="48.288359" y="342.525545" style="stroke: #000000; stroke-width: 0.8"/>
      </g>
     </g>
     <g id="text_8">
      <!-- 25 -->
      <g transform="translate(28.563359 346.324373) scale(0.1 -0.1)">
       <defs>
        <path id="DejaVuSans-18" d="M 691 4666 
L 3169 4666 
L 3169 4134 
L 1269 4134 
L 1269 2991 
Q 1406 3038 1543 3061 
Q 1681 3084 1819 3084 
Q 2600 3084 3056 2656 
Q 3513 2228 3513 1497 
Q 3513 744 3044 326 
Q 2575 -91 1722 -91 
Q 1428 -91 1123 -41 
Q 819 9 494 109 
L 494 744 
Q 775 591 1075 516 
Q 1375 441 1709 441 
Q 2250 441 2565 725 
Q 2881 1009 2881 1497 
Q 2881 1984 2565 2268 
Q 2250 2553 1709 2553 
Q 1456 2553 1204 2497 
Q 953 2441 691 2322 
L 691 4666 
z
" transform="scale(0.015625)"/>
       </defs>
       <use xlink:href="#DejaVuSans-15"/>
       <use xlink:href="#DejaVuSans-18" transform="translate(63.625 0)"/>
      </g>
     </g>
    </g>
    <g id="ytick_3">
     <g id="line2d_10">
      <path d="M 48.288359 302.370405 
L 606.288359 302.370405 
" clip-path="url(#p21c598da0f)" style="fill: none; stroke-dasharray: 0.8,1.32; stroke-dashoffset: 0; stroke: #bbbbbb; stroke-width: 0.8"/>
     </g>
     <g id="line2d_11">
      <g>
       <use xlink:href="#m4196a3143d" x="48.288359" y="302.370405" style="stroke: #000000; stroke-width: 0.8"/>
      </g>
     </g>
     <g id="text_9">
      <!-- 50 -->
      <g transform="translate(28.563359 306.169233) scale(0.1 -0.1)">
       <use xlink:href="#DejaVuSans-18"/>
       <use xlink:href="#DejaVuSans-13" transform="translate(63.625 0)"/>
      </g>
     </g>
    </g>
    <g id="ytick_4">
     <g id="line2d_12">
      <path d="M 48.288359 262.215265 
L 606.288359 262.215265 
" clip-path="url(#p21c598da0f)" style="fill: none; stroke-dasharray: 0.8,1.32; stroke-dashoffset: 0; stroke: #bbbbbb; stroke-width: 0.8"/>
     </g>
     <g id="line2d_13">
      <g>
       <use xlink:href="#m4196a3143d" x="48.288359" y="262.215265" style="stroke: #000000; stroke-width: 0.8"/>
      </g>
     </g>
     <g id="text_10">
      <!-- 75 -->
      <g transform="translate(28.563359 266.014093) scale(0.1 -0.1)">
       <defs>
        <path id="DejaVuSans-1a" d="M 525 4666 
L 3525 4666 
L 3525 4397 
L 1831 0 
L 1172 0 
L 2766 4134 
L 525 4134 
L 525 4666 
z
" transform="scale(0.015625)"/>
       </defs>
       <use xlink:href="#DejaVuSans-1a"/>
       <use xlink:href="#DejaVuSans-18" transform="translate(63.625 0)"/>
      </g>
     </g>
    </g>
    <g id="ytick_5">
     <g id="line2d_14">
      <path d="M 48.288359 222.060125 
L 606.288359 222.060125 
" clip-path="url(#p21c598da0f)" style="fill: none; stroke-dasharray: 0.8,1.32; stroke-dashoffset: 0; stroke: #bbbbbb; stroke-width: 0.8"/>
     </g>
     <g id="line2d_15">
      <g>
       <use xlink:href="#m4196a3143d" x="48.288359" y="222.060125" style="stroke: #000000; stroke-width: 0.8"/>
      </g>
     </g>
     <g id="text_11">
      <!-- 100 -->
      <g transform="translate(22.200859 225.858953) scale(0.1 -0.1)">
       <use xlink:href="#DejaVuSans-14"/>
       <use xlink:href="#DejaVuSans-13" transform="translate(63.625 0)"/>
       <use xlink:href="#DejaVuSans-13" transform="translate(127.25 0)"/>
      </g>
     </g>
    </g>
    <g id="ytick_6">
     <g id="line2d_16">
      <path d="M 48.288359 181.904985 
L 606.288359 181.904985 
" clip-path="url(#p21c598da0f)" style="fill: none; stroke-dasharray: 0.8,1.32; stroke-dashoffset: 0; stroke: #bbbbbb; stroke-width: 0.8"/>
     </g>
     <g id="line2d_17">
      <g>
       <use xlink:href="#m4196a3143d" x="48.288359" y="181.904985" style="stroke: #000000; stroke-width: 0.8"/>
      </g>
     </g>
     <g id="text_12">
      <!-- 125 -->
      <g transform="translate(22.200859 185.703813) scale(0.1 -0.1)">
       <use xlink:href="#DejaVuSans-14"/>
       <use xlink:href="#DejaVuSans-15" transform="translate(63.625 0)"/>
       <use xlink:href="#DejaVuSans-18" transform="translate(127.25 0)"/>
      </g>
     </g>
    </g>
    <g id="ytick_7">
     <g id="line2d_18">
      <path d="M 48.288359 141.749844 
L 606.288359 141.749844 
" clip-path="url(#p21c598da0f)" style="fill: none; stroke-dasharray: 0.8,1.32; stroke-dashoffset: 0; stroke: #bbbbbb; stroke-width: 0.8"/>
     </g>
     <g id="line2d_19">
      <g>
       <use xlink:href="#m4196a3143d" x="48.288359" y="141.749844" style="stroke: #000000; stroke-width: 0.8"/>
      </g>
     </g>
     <g id="text_13">
      <!-- 150 -->
      <g transform="translate(22.200859 145.548673) scale(0.1 -0.1)">
       <use xlink:href="#DejaVuSans-14"/>
       <use xlink:href="#DejaVuSans-18" transform="translate(63.625 0)"/>
       <use xlink:href="#DejaVuSans-13" transform="translate(127.25 0)"/>
      </g>
     </g>
    </g>
    <g id="ytick_8">
     <g id="line2d_20">
      <path d="M 48.288359 101.594704 
L 606.288359 101.594704 
" clip-path="url(#p21c598da0f)" style="fill: none; stroke-dasharray: 0.8,1.32; stroke-dashoffset: 0; stroke: #bbbbbb; stroke-width: 0.8"/>
     </g>
     <g id="line2d_21">
      <g>
       <use xlink:href="#m4196a3143d" x="48.288359" y="101.594704" style="stroke: #000000; stroke-width: 0.8"/>
      </g>
     </g>
     <g id="text_14">
      <!-- 175 -->
      <g transform="translate(22.200859 105.393532) scale(0.1 -0.1)">
       <use xlink:href="#DejaVuSans-14"/>
       <use xlink:href="#DejaVuSans-1a" transform="translate(63.625 0)"/>
       <use xlink:href="#DejaVuSans-18" transform="translate(127.25 0)"/>
      </g>
     </g>
    </g>
    <g id="ytick_9">
     <g id="line2d_22">
      <path d="M 48.288359 61.439564 
L 606.288359 61.439564 
" clip-path="url(#p21c598da0f)" style="fill: none; stroke-dasharray: 0.8,1.32; stroke-dashoffset: 0; stroke: #bbbbbb; stroke-width: 0.8"/>
     </g>
     <g id="line2d_23">
      <g>
       <use xlink:href="#m4196a3143d" x="48.288359" y="61.439564" style="stroke: #000000; stroke-width: 0.8"/>
      </g>
     </g>
     <g id="text_15">
      <!-- 200 -->
      <g transform="translate(22.200859 65.238392) scale(0.1 -0.1)">
       <use xlink:href="#DejaVuSans-15"/>
       <use xlink:href="#DejaVuSans-13" transform="translate(63.625 0)"/>
       <use xlink:href="#DejaVuSans-13" transform="translate(127.25 0)"/>
      </g>
     </g>
    </g>
    <g id="text_16">
     <!-- receiver throughput (Mbps) -->
     <g transform="translate(15.558281 286.302467) rotate(-90) scale(0.11 -0.11)">
      <defs>
       <path id="DejaVuSans-46" d="M 3122 3366 
L 3122 2828 
Q 2878 2963 2633 3030 
Q 2388 3097 2138 3097 
Q 1578 3097 1268 2742 
Q 959 2388 959 1747 
Q 959 1106 1268 751 
Q 1578 397 2138 397 
Q 2388 397 2633 464 
Q 2878 531 3122 666 
L 3122 134 
Q 2881 22 2623 -34 
Q 2366 -91 2075 -91 
Q 1284 -91 818 406 
Q 353 903 353 1747 
Q 353 2603 823 3093 
Q 1294 3584 2113 3584 
Q 2378 3584 2631 3529 
Q 2884 3475 3122 3366 
z
" transform="scale(0.015625)"/>
       <path id="DejaVuSans-59" d="M 191 3500 
L 800 3500 
L 1894 563 
L 2988 3500 
L 3597 3500 
L 2284 0 
L 1503 0 
L 191 3500 
z
" transform="scale(0.015625)"/>
       <path id="DejaVuSans-4b" d="M 3513 2113 
L 3513 0 
L 2938 0 
L 2938 2094 
Q 2938 2591 2744 2837 
Q 2550 3084 2163 3084 
Q 1697 3084 1428 2787 
Q 1159 2491 1159 1978 
L 1159 0 
L 581 0 
L 581 4863 
L 1159 4863 
L 1159 2956 
Q 1366 3272 1645 3428 
Q 1925 3584 2291 3584 
Q 2894 3584 3203 3211 
Q 3513 2838 3513 2113 
z
" transform="scale(0.015625)"/>
       <path id="DejaVuSans-52" d="M 1959 3097 
Q 1497 3097 1228 2736 
Q 959 2375 959 1747 
Q 959 1119 1226 758 
Q 1494 397 1959 397 
Q 2419 397 2687 759 
Q 2956 1122 2956 1747 
Q 2956 2369 2687 2733 
Q 2419 3097 1959 3097 
z
M 1959 3584 
Q 2709 3584 3137 3096 
Q 3566 2609 3566 1747 
Q 3566 888 3137 398 
Q 2709 -91 1959 -91 
Q 1206 -91 779 398 
Q 353 888 353 1747 
Q 353 2609 779 3096 
Q 1206 3584 1959 3584 
z
" transform="scale(0.015625)"/>
       <path id="DejaVuSans-58" d="M 544 1381 
L 544 3500 
L 1119 3500 
L 1119 1403 
Q 1119 906 1312 657 
Q 1506 409 1894 409 
Q 2359 409 2629 706 
Q 2900 1003 2900 1516 
L 2900 3500 
L 3475 3500 
L 3475 0 
L 2900 0 
L 2900 538 
Q 2691 219 2414 64 
Q 2138 -91 1772 -91 
Q 1169 -91 856 284 
Q 544 659 544 1381 
z
M 1991 3584 
L 1991 3584 
z
" transform="scale(0.015625)"/>
       <path id="DejaVuSans-4a" d="M 2906 1791 
Q 2906 2416 2648 2759 
Q 2391 3103 1925 3103 
Q 1463 3103 1205 2759 
Q 947 2416 947 1791 
Q 947 1169 1205 825 
Q 1463 481 1925 481 
Q 2391 481 2648 825 
Q 2906 1169 2906 1791 
z
M 3481 434 
Q 3481 -459 3084 -895 
Q 2688 -1331 1869 -1331 
Q 1566 -1331 1297 -1286 
Q 1028 -1241 775 -1147 
L 775 -588 
Q 1028 -725 1275 -790 
Q 1522 -856 1778 -856 
Q 2344 -856 2625 -561 
Q 2906 -266 2906 331 
L 2906 616 
Q 2728 306 2450 153 
Q 2172 0 1784 0 
Q 1141 0 747 490 
Q 353 981 353 1791 
Q 353 2603 747 3093 
Q 1141 3584 1784 3584 
Q 2172 3584 2450 3431 
Q 2728 3278 2906 2969 
L 2906 3500 
L 3481 3500 
L 3481 434 
z
" transform="scale(0.015625)"/>
       <path id="DejaVuSans-b" d="M 1984 4856 
Q 1566 4138 1362 3434 
Q 1159 2731 1159 2009 
Q 1159 1288 1364 580 
Q 1569 -128 1984 -844 
L 1484 -844 
Q 1016 -109 783 600 
Q 550 1309 550 2009 
Q 550 2706 781 3412 
Q 1013 4119 1484 4856 
L 1984 4856 
z
" transform="scale(0.015625)"/>
       <path id="DejaVuSans-30" d="M 628 4666 
L 1569 4666 
L 2759 1491 
L 3956 4666 
L 4897 4666 
L 4897 0 
L 4281 0 
L 4281 4097 
L 3078 897 
L 2444 897 
L 1241 4097 
L 1241 0 
L 628 0 
L 628 4666 
z
" transform="scale(0.015625)"/>
       <path id="DejaVuSans-45" d="M 3116 1747 
Q 3116 2381 2855 2742 
Q 2594 3103 2138 3103 
Q 1681 3103 1420 2742 
Q 1159 2381 1159 1747 
Q 1159 1113 1420 752 
Q 1681 391 2138 391 
Q 2594 391 2855 752 
Q 3116 1113 3116 1747 
z
M 1159 2969 
Q 1341 3281 1617 3432 
Q 1894 3584 2278 3584 
Q 2916 3584 3314 3078 
Q 3713 2572 3713 1747 
Q 3713 922 3314 415 
Q 2916 -91 2278 -91 
Q 1894 -91 1617 61 
Q 1341 213 1159 525 
L 1159 0 
L 581 0 
L 581 4863 
L 1159 4863 
L 1159 2969 
z
" transform="scale(0.015625)"/>
       <path id="DejaVuSans-c" d="M 513 4856 
L 1013 4856 
Q 1481 4119 1714 3412 
Q 1947 2706 1947 2009 
Q 1947 1309 1714 600 
Q 1481 -109 1013 -844 
L 513 -844 
Q 928 -128 1133 580 
Q 1338 1288 1338 2009 
Q 1338 2731 1133 3434 
Q 928 4138 513 4856 
z
" transform="scale(0.015625)"/>
      </defs>
      <use xlink:href="#DejaVuSans-55"/>
      <use xlink:href="#DejaVuSans-48" transform="translate(38.90625 0)"/>
      <use xlink:href="#DejaVuSans-46" transform="translate(100.4375 0)"/>
      <use xlink:href="#DejaVuSans-48" transform="translate(155.421875 0)"/>
      <use xlink:href="#DejaVuSans-4c" transform="translate(216.953125 0)"/>
      <use xlink:href="#DejaVuSans-59" transform="translate(244.734375 0)"/>
      <use xlink:href="#DejaVuSans-48" transform="translate(303.921875 0)"/>
      <use xlink:href="#DejaVuSans-55" transform="translate(365.453125 0)"/>
      <use xlink:href="#DejaVuSans-3" transform="translate(406.5625 0)"/>
      <use xlink:href="#DejaVuSans-57" transform="translate(438.34375 0)"/>
      <use xlink:href="#DejaVuSans-4b" transform="translate(477.546875 0)"/>
      <use xlink:href="#DejaVuSans-55" transform="translate(540.921875 0)"/>
      <use xlink:href="#DejaVuSans-52" transform="translate(579.828125 0)"/>
      <use xlink:href="#DejaVuSans-58" transform="translate(641.015625 0)"/>
      <use xlink:href="#DejaVuSans-4a" transform="translate(704.390625 0)"/>
      <use xlink:href="#DejaVuSans-4b" transform="translate(767.875 0)"/>
      <use xlink:href="#DejaVuSans-53" transform="translate(831.25 0)"/>
      <use xlink:href="#DejaVuSans-58" transform="translate(894.734375 0)"/>
      <use xlink:href="#DejaVuSans-57" transform="translate(958.109375 0)"/>
      <use xlink:href="#DejaVuSans-3" transform="translate(997.3125 0)"/>
      <use xlink:href="#DejaVuSans-b" transform="translate(1029.09375 0)"/>
      <use xlink:href="#DejaVuSans-30" transform="translate(1068.109375 0)"/>
      <use xlink:href="#DejaVuSans-45" transform="translate(1154.390625 0)"/>
      <use xlink:href="#DejaVuSans-53" transform="translate(1217.875 0)"/>
      <use xlink:href="#DejaVuSans-56" transform="translate(1281.359375 0)"/>
      <use xlink:href="#DejaVuSans-c" transform="translate(1333.453125 0)"/>
     </g>
    </g>
   </g>
   <g id="line2d_24">
    <path d="M 48.288359 61.439564 
L 606.288359 61.439564 
" clip-path="url(#p21c598da0f)" style="fill: none; stroke-dasharray: 5,4; stroke-dashoffset: 0; stroke: #999999"/>
   </g>
   <g id="patch_3">
    <path d="M 48.288359 382.680686 
L 48.288359 38.952686 
" style="fill: none; stroke: #000000; stroke-width: 0.8; stroke-linejoin: miter; stroke-linecap: square"/>
   </g>
   <g id="patch_4">
    <path d="M 606.288359 382.680686 
L 606.288359 38.952686 
" style="fill: none; stroke: #000000; stroke-width: 0.8; stroke-linejoin: miter; stroke-linecap: square"/>
   </g>
   <g id="patch_5">
    <path d="M 48.288359 382.680686 
L 606.288359 382.680686 
" style="fill: none; stroke: #000000; stroke-width: 0.8; stroke-linejoin: miter; stroke-linecap: square"/>
   </g>
   <g id="patch_6">
    <path d="M 48.288359 38.952686 
L 606.288359 38.952686 
" style="fill: none; stroke: #000000; stroke-width: 0.8; stroke-linejoin: miter; stroke-linecap: square"/>
   </g>
   <g id="patch_7">
    <path d="M 73.651996 382.680686 
L 114.148558 382.680686 
L 114.148558 228.163706 
L 73.651996 228.163706 
z
" clip-path="url(#p21c598da0f)" style="fill: url(#h458f0d2a82); stroke: #5a5a5a; stroke-linejoin: miter"/>
   </g>
   <g id="patch_8">
    <path d="M 180.221896 382.680686 
L 220.718459 382.680686 
L 220.718459 97.739811 
L 180.221896 97.739811 
z
" clip-path="url(#p21c598da0f)" style="fill: url(#h458f0d2a82); stroke: #5a5a5a; stroke-linejoin: miter"/>
   </g>
   <g id="patch_9">
    <path d="M 286.791797 382.680686 
L 327.288359 382.680686 
L 327.288359 113.801867 
L 286.791797 113.801867 
z
" clip-path="url(#p21c598da0f)" style="fill: url(#h458f0d2a82); stroke: #5a5a5a; stroke-linejoin: miter"/>
   </g>
   <g id="patch_10">
    <path d="M 393.361698 382.680686 
L 433.85826 382.680686 
L 433.85826 98.061052 
L 393.361698 98.061052 
z
" clip-path="url(#p21c598da0f)" style="fill: url(#h458f0d2a82); stroke: #5a5a5a; stroke-linejoin: miter"/>
   </g>
   <g id="patch_11">
    <path d="M 499.931598 382.680686 
L 540.428161 382.680686 
L 540.428161 96.776087 
L 499.931598 96.776087 
z
" clip-path="url(#p21c598da0f)" style="fill: url(#h458f0d2a82); stroke: #5a5a5a; stroke-linejoin: miter"/>
   </g>
   <g id="text_17">
    <!-- 96 -->
    <g style="fill: #222222" transform="translate(88.174027 222.519735) scale(0.09 -0.09)">
     <defs>
      <path id="DejaVuSans-1c" d="M 703 97 
L 703 672 
Q 941 559 1184 500 
Q 1428 441 1663 441 
Q 2288 441 2617 861 
Q 2947 1281 2994 2138 
Q 2813 1869 2534 1725 
Q 2256 1581 1919 1581 
Q 1219 1581 811 2004 
Q 403 2428 403 3163 
Q 403 3881 828 4315 
Q 1253 4750 1959 4750 
Q 2769 4750 3195 4129 
Q 3622 3509 3622 2328 
Q 3622 1225 3098 567 
Q 2575 -91 1691 -91 
Q 1453 -91 1209 -44 
Q 966 3 703 97 
z
M 1959 2075 
Q 2384 2075 2632 2365 
Q 2881 2656 2881 3163 
Q 2881 3666 2632 3958 
Q 2384 4250 1959 4250 
Q 1534 4250 1286 3958 
Q 1038 3666 1038 3163 
Q 1038 2656 1286 2365 
Q 1534 2075 1959 2075 
z
" transform="scale(0.015625)"/>
     </defs>
     <use xlink:href="#DejaVuSans-1c"/>
     <use xlink:href="#DejaVuSans-19" transform="translate(63.625 0)"/>
    </g>
   </g>
   <g id="text_18">
    <!-- 177 -->
    <g style="fill: #222222" transform="translate(191.880803 88.883429) scale(0.09 -0.09)">
     <use xlink:href="#DejaVuSans-14"/>
     <use xlink:href="#DejaVuSans-1a" transform="translate(63.625 0)"/>
     <use xlink:href="#DejaVuSans-1a" transform="translate(127.25 0)"/>
    </g>
   </g>
   <g id="text_19">
    <!-- 167 -->
    <g style="fill: #222222" transform="translate(298.450703 89.847152) scale(0.09 -0.09)">
     <use xlink:href="#DejaVuSans-14"/>
     <use xlink:href="#DejaVuSans-19" transform="translate(63.625 0)"/>
     <use xlink:href="#DejaVuSans-1a" transform="translate(127.25 0)"/>
    </g>
   </g>
   <g id="text_20">
    <!-- 177 -->
    <g style="fill: #222222" transform="translate(405.020604 89.686531) scale(0.09 -0.09)">
     <use xlink:href="#DejaVuSans-14"/>
     <use xlink:href="#DejaVuSans-1a" transform="translate(63.625 0)"/>
     <use xlink:href="#DejaVuSans-1a" transform="translate(127.25 0)"/>
    </g>
   </g>
   <g id="text_21">
    <!-- 178 -->
    <g style="fill: #222222" transform="translate(511.590505 90.489634) scale(0.09 -0.09)">
     <use xlink:href="#DejaVuSans-14"/>
     <use xlink:href="#DejaVuSans-1a" transform="translate(63.625 0)"/>
     <use xlink:href="#DejaVuSans-1b" transform="translate(127.25 0)"/>
    </g>
   </g>
   <g id="patch_12">
    <path d="M 114.148558 382.680686 
L 154.64512 382.680686 
L 154.64512 81.998996 
L 114.148558 81.998996 
z
" clip-path="url(#p21c598da0f)" style="fill: #1f77b4; stroke: #124c74; stroke-linejoin: miter"/>
   </g>
   <g id="patch_13">
    <path d="M 220.718459 382.680686 
L 261.215021 382.680686 
L 261.215021 83.605201 
L 220.718459 83.605201 
z
" clip-path="url(#p21c598da0f)" style="fill: #1f77b4; stroke: #124c74; stroke-linejoin: miter"/>
   </g>
   <g id="patch_14">
    <path d="M 327.288359 382.680686 
L 367.784922 382.680686 
L 367.784922 81.195893 
L 327.288359 81.195893 
z
" clip-path="url(#p21c598da0f)" style="fill: #1f77b4; stroke: #124c74; stroke-linejoin: miter"/>
   </g>
   <g id="patch_15">
    <path d="M 433.85826 382.680686 
L 474.354822 382.680686 
L 474.354822 80.874652 
L 433.85826 80.874652 
z
" clip-path="url(#p21c598da0f)" style="fill: #1f77b4; stroke: #124c74; stroke-linejoin: miter"/>
   </g>
   <g id="patch_16">
    <path d="M 540.428161 382.680686 
L 580.924723 382.680686 
L 580.924723 80.714031 
L 540.428161 80.714031 
z
" clip-path="url(#p21c598da0f)" style="fill: #1f77b4; stroke: #124c74; stroke-linejoin: miter"/>
   </g>
   <g id="text_22">
    <!-- 187 -->
    <g style="fill: #222222" transform="translate(125.807464 75.873163) scale(0.09 -0.09)">
     <use xlink:href="#DejaVuSans-14"/>
     <use xlink:href="#DejaVuSans-1b" transform="translate(63.625 0)"/>
     <use xlink:href="#DejaVuSans-1a" transform="translate(127.25 0)"/>
    </g>
   </g>
   <g id="text_23">
    <!-- 186 -->
    <g style="fill: #222222" transform="translate(232.377365 77.639989) scale(0.09 -0.09)">
     <use xlink:href="#DejaVuSans-14"/>
     <use xlink:href="#DejaVuSans-1b" transform="translate(63.625 0)"/>
     <use xlink:href="#DejaVuSans-19" transform="translate(127.25 0)"/>
    </g>
   </g>
   <g id="text_24">
    <!-- 188 -->
    <g style="fill: #222222" transform="translate(338.947266 74.90944) scale(0.09 -0.09)">
     <use xlink:href="#DejaVuSans-14"/>
     <use xlink:href="#DejaVuSans-1b" transform="translate(63.625 0)"/>
     <use xlink:href="#DejaVuSans-1b" transform="translate(127.25 0)"/>
    </g>
   </g>
   <g id="text_25">
    <!-- 188 -->
    <g style="fill: #222222" transform="translate(445.517166 74.588199) scale(0.09 -0.09)">
     <use xlink:href="#DejaVuSans-14"/>
     <use xlink:href="#DejaVuSans-1b" transform="translate(63.625 0)"/>
     <use xlink:href="#DejaVuSans-1b" transform="translate(127.25 0)"/>
    </g>
   </g>
   <g id="text_26">
    <!-- 188 -->
    <g style="fill: #222222" transform="translate(552.087067 75.07006) scale(0.09 -0.09)">
     <use xlink:href="#DejaVuSans-14"/>
     <use xlink:href="#DejaVuSans-1b" transform="translate(63.625 0)"/>
     <use xlink:href="#DejaVuSans-1b" transform="translate(127.25 0)"/>
    </g>
   </g>
   <g id="text_27">
    <!-- +95% -->
    <g style="fill: #00aa55" transform="translate(119.046917 66.035272) scale(0.095 -0.095)">
     <defs>
      <path id="DejaVuSans-Bold-e" d="M 3053 4013 
L 3053 2375 
L 4684 2375 
L 4684 1638 
L 3053 1638 
L 3053 0 
L 2309 0 
L 2309 1638 
L 678 1638 
L 678 2375 
L 2309 2375 
L 2309 4013 
L 3053 4013 
z
" transform="scale(0.015625)"/>
      <path id="DejaVuSans-Bold-1c" d="M 641 103 
L 641 966 
Q 928 831 1190 764 
Q 1453 697 1709 697 
Q 2247 697 2547 995 
Q 2847 1294 2900 1881 
Q 2688 1725 2447 1647 
Q 2206 1569 1925 1569 
Q 1209 1569 770 1986 
Q 331 2403 331 3084 
Q 331 3838 820 4291 
Q 1309 4744 2131 4744 
Q 3044 4744 3544 4128 
Q 4044 3513 4044 2388 
Q 4044 1231 3459 570 
Q 2875 -91 1856 -91 
Q 1528 -91 1228 -42 
Q 928 6 641 103 
z
M 2125 2350 
Q 2441 2350 2600 2554 
Q 2759 2759 2759 3169 
Q 2759 3575 2600 3781 
Q 2441 3988 2125 3988 
Q 1809 3988 1650 3781 
Q 1491 3575 1491 3169 
Q 1491 2759 1650 2554 
Q 1809 2350 2125 2350 
z
" transform="scale(0.015625)"/>
      <path id="DejaVuSans-Bold-18" d="M 678 4666 
L 3669 4666 
L 3669 3781 
L 1638 3781 
L 1638 3059 
Q 1775 3097 1914 3117 
Q 2053 3138 2203 3138 
Q 3056 3138 3531 2711 
Q 4006 2284 4006 1522 
Q 4006 766 3489 337 
Q 2972 -91 2053 -91 
Q 1656 -91 1267 -14 
Q 878 63 494 219 
L 494 1166 
Q 875 947 1217 837 
Q 1559 728 1863 728 
Q 2300 728 2551 942 
Q 2803 1156 2803 1522 
Q 2803 1891 2551 2103 
Q 2300 2316 1863 2316 
Q 1603 2316 1309 2248 
Q 1016 2181 678 2041 
L 678 4666 
z
" transform="scale(0.015625)"/>
      <path id="DejaVuSans-Bold-8" d="M 4959 1925 
Q 4738 1925 4616 1733 
Q 4494 1541 4494 1184 
Q 4494 825 4614 633 
Q 4734 441 4959 441 
Q 5184 441 5303 633 
Q 5422 825 5422 1184 
Q 5422 1541 5301 1733 
Q 5181 1925 4959 1925 
z
M 4959 2450 
Q 5541 2450 5875 2112 
Q 6209 1775 6209 1184 
Q 6209 594 5875 251 
Q 5541 -91 4959 -91 
Q 4378 -91 4042 251 
Q 3706 594 3706 1184 
Q 3706 1772 4042 2111 
Q 4378 2450 4959 2450 
z
M 2094 -91 
L 1403 -91 
L 4319 4750 
L 5013 4750 
L 2094 -91 
z
M 1453 4750 
Q 2034 4750 2367 4411 
Q 2700 4072 2700 3481 
Q 2700 2891 2367 2550 
Q 2034 2209 1453 2209 
Q 872 2209 539 2550 
Q 206 2891 206 3481 
Q 206 4072 539 4411 
Q 872 4750 1453 4750 
z
M 1453 4225 
Q 1228 4225 1106 4031 
Q 984 3838 984 3481 
Q 984 3122 1106 2926 
Q 1228 2731 1453 2731 
Q 1678 2731 1798 2926 
Q 1919 3122 1919 3481 
Q 1919 3838 1797 4031 
Q 1675 4225 1453 4225 
z
" transform="scale(0.015625)"/>
     </defs>
     <use xlink:href="#DejaVuSans-Bold-e"/>
     <use xlink:href="#DejaVuSans-Bold-1c" transform="translate(83.796875 0)"/>
     <use xlink:href="#DejaVuSans-Bold-18" transform="translate(153.375 0)"/>
     <use xlink:href="#DejaVuSans-Bold-8" transform="translate(222.953125 0)"/>
    </g>
   </g>
   <g id="text_28">
    <!-- +5% -->
    <g style="fill: #00aa55" transform="translate(228.921779 67.802099) scale(0.095 -0.095)">
     <use xlink:href="#DejaVuSans-Bold-e"/>
     <use xlink:href="#DejaVuSans-Bold-18" transform="translate(83.796875 0)"/>
     <use xlink:href="#DejaVuSans-Bold-8" transform="translate(153.375 0)"/>
    </g>
   </g>
   <g id="text_29">
    <!-- +12% -->
    <g style="fill: #00aa55" transform="translate(332.186719 65.071549) scale(0.095 -0.095)">
     <defs>
      <path id="DejaVuSans-Bold-14" d="M 750 831 
L 1813 831 
L 1813 3847 
L 722 3622 
L 722 4441 
L 1806 4666 
L 2950 4666 
L 2950 831 
L 4013 831 
L 4013 0 
L 750 0 
L 750 831 
z
" transform="scale(0.015625)"/>
      <path id="DejaVuSans-Bold-15" d="M 1844 884 
L 3897 884 
L 3897 0 
L 506 0 
L 506 884 
L 2209 2388 
Q 2438 2594 2547 2791 
Q 2656 2988 2656 3200 
Q 2656 3528 2436 3728 
Q 2216 3928 1850 3928 
Q 1569 3928 1234 3808 
Q 900 3688 519 3450 
L 519 4475 
Q 925 4609 1322 4679 
Q 1719 4750 2100 4750 
Q 2938 4750 3402 4381 
Q 3866 4013 3866 3353 
Q 3866 2972 3669 2642 
Q 3472 2313 2841 1759 
L 1844 884 
z
" transform="scale(0.015625)"/>
     </defs>
     <use xlink:href="#DejaVuSans-Bold-e"/>
     <use xlink:href="#DejaVuSans-Bold-14" transform="translate(83.796875 0)"/>
     <use xlink:href="#DejaVuSans-Bold-15" transform="translate(153.375 0)"/>
     <use xlink:href="#DejaVuSans-Bold-8" transform="translate(222.953125 0)"/>
    </g>
   </g>
   <g id="text_30">
    <!-- +6% -->
    <g style="fill: #00aa55" transform="translate(442.06158 64.750308) scale(0.095 -0.095)">
     <defs>
      <path id="DejaVuSans-Bold-19" d="M 2316 2303 
Q 2000 2303 1842 2098 
Q 1684 1894 1684 1484 
Q 1684 1075 1842 870 
Q 2000 666 2316 666 
Q 2634 666 2792 870 
Q 2950 1075 2950 1484 
Q 2950 1894 2792 2098 
Q 2634 2303 2316 2303 
z
M 3803 4544 
L 3803 3681 
Q 3506 3822 3243 3889 
Q 2981 3956 2731 3956 
Q 2194 3956 1894 3657 
Q 1594 3359 1544 2772 
Q 1750 2925 1990 3001 
Q 2231 3078 2516 3078 
Q 3231 3078 3670 2659 
Q 4109 2241 4109 1563 
Q 4109 813 3618 361 
Q 3128 -91 2303 -91 
Q 1394 -91 895 523 
Q 397 1138 397 2266 
Q 397 3422 980 4083 
Q 1563 4744 2578 4744 
Q 2900 4744 3203 4694 
Q 3506 4644 3803 4544 
z
" transform="scale(0.015625)"/>
     </defs>
     <use xlink:href="#DejaVuSans-Bold-e"/>
     <use xlink:href="#DejaVuSans-Bold-19" transform="translate(83.796875 0)"/>
     <use xlink:href="#DejaVuSans-Bold-8" transform="translate(153.375 0)"/>
    </g>
   </g>
   <g id="text_31">
    <!-- +6% -->
    <g style="fill: #00aa55" transform="translate(548.631481 65.23217) scale(0.095 -0.095)">
     <use xlink:href="#DejaVuSans-Bold-e"/>
     <use xlink:href="#DejaVuSans-Bold-19" transform="translate(83.796875 0)"/>
     <use xlink:href="#DejaVuSans-Bold-8" transform="translate(153.375 0)"/>
    </g>
   </g>
   <g id="text_32">
    <!-- 200 = 2×100 Mbit aggregate cap -->
    <g style="fill: #777777" transform="translate(445.366804 56.988263) scale(0.085 -0.085)">
     <defs>
      <path id="DejaVuSans-20" d="M 678 2906 
L 4684 2906 
L 4684 2381 
L 678 2381 
L 678 2906 
z
M 678 1631 
L 4684 1631 
L 4684 1100 
L 678 1100 
L 678 1631 
z
" transform="scale(0.015625)"/>
      <path id="DejaVuSans-99" d="M 4488 3438 
L 3059 2003 
L 4488 575 
L 4116 197 
L 2681 1631 
L 1247 197 
L 878 575 
L 2303 2003 
L 878 3438 
L 1247 3816 
L 2681 2381 
L 4116 3816 
L 4488 3438 
z
" transform="scale(0.015625)"/>
     </defs>
     <use xlink:href="#DejaVuSans-15"/>
     <use xlink:href="#DejaVuSans-13" transform="translate(63.625 0)"/>
     <use xlink:href="#DejaVuSans-13" transform="translate(127.25 0)"/>
     <use xlink:href="#DejaVuSans-3" transform="translate(190.875 0)"/>
     <use xlink:href="#DejaVuSans-20" transform="translate(222.65625 0)"/>
     <use xlink:href="#DejaVuSans-3" transform="translate(306.453125 0)"/>
     <use xlink:href="#DejaVuSans-15" transform="translate(338.234375 0)"/>
     <use xlink:href="#DejaVuSans-99" transform="translate(401.859375 0)"/>
     <use xlink:href="#DejaVuSans-14" transform="translate(485.65625 0)"/>
     <use xlink:href="#DejaVuSans-13" transform="translate(549.28125 0)"/>
     <use xlink:href="#DejaVuSans-13" transform="translate(612.90625 0)"/>
     <use xlink:href="#DejaVuSans-3" transform="translate(676.53125 0)"/>
     <use xlink:href="#DejaVuSans-30" transform="translate(708.3125 0)"/>
     <use xlink:href="#DejaVuSans-45" transform="translate(794.59375 0)"/>
     <use xlink:href="#DejaVuSans-4c" transform="translate(858.078125 0)"/>
     <use xlink:href="#DejaVuSans-57" transform="translate(885.859375 0)"/>
     <use xlink:href="#DejaVuSans-3" transform="translate(925.0625 0)"/>
     <use xlink:href="#DejaVuSans-44" transform="translate(956.84375 0)"/>
     <use xlink:href="#DejaVuSans-4a" transform="translate(1018.125 0)"/>
     <use xlink:href="#DejaVuSans-4a" transform="translate(1081.609375 0)"/>
     <use xlink:href="#DejaVuSans-55" transform="translate(1145.09375 0)"/>
     <use xlink:href="#DejaVuSans-48" transform="translate(1184 0)"/>
     <use xlink:href="#DejaVuSans-4a" transform="translate(1245.53125 0)"/>
     <use xlink:href="#DejaVuSans-44" transform="translate(1309.015625 0)"/>
     <use xlink:href="#DejaVuSans-57" transform="translate(1370.296875 0)"/>
     <use xlink:href="#DejaVuSans-48" transform="translate(1409.5 0)"/>
     <use xlink:href="#DejaVuSans-3" transform="translate(1471.03125 0)"/>
     <use xlink:href="#DejaVuSans-46" transform="translate(1502.8125 0)"/>
     <use xlink:href="#DejaVuSans-44" transform="translate(1557.796875 0)"/>
     <use xlink:href="#DejaVuSans-53" transform="translate(1619.078125 0)"/>
    </g>
   </g>
   <g id="text_33">
    <!-- mqvpn v0.9.0 hybrid TCP-lane — wlb scheduler -->
    <g transform="translate(179.465117 17.949268) scale(0.125 -0.125)">
     <defs>
      <path id="DejaVuSans-54" d="M 947 1747 
Q 947 1113 1208 752 
Q 1469 391 1925 391 
Q 2381 391 2643 752 
Q 2906 1113 2906 1747 
Q 2906 2381 2643 2742 
Q 2381 3103 1925 3103 
Q 1469 3103 1208 2742 
Q 947 2381 947 1747 
z
M 2906 525 
Q 2725 213 2448 61 
Q 2172 -91 1784 -91 
Q 1150 -91 751 415 
Q 353 922 353 1747 
Q 353 2572 751 3078 
Q 1150 3584 1784 3584 
Q 2172 3584 2448 3432 
Q 2725 3281 2906 2969 
L 2906 3500 
L 3481 3500 
L 3481 -1331 
L 2906 -1331 
L 2906 525 
z
" transform="scale(0.015625)"/>
      <path id="DejaVuSans-51" d="M 3513 2113 
L 3513 0 
L 2938 0 
L 2938 2094 
Q 2938 2591 2744 2837 
Q 2550 3084 2163 3084 
Q 1697 3084 1428 2787 
Q 1159 2491 1159 1978 
L 1159 0 
L 581 0 
L 581 3500 
L 1159 3500 
L 1159 2956 
Q 1366 3272 1645 3428 
Q 1925 3584 2291 3584 
Q 2894 3584 3203 3211 
Q 3513 2838 3513 2113 
z
" transform="scale(0.015625)"/>
      <path id="DejaVuSans-11" d="M 684 794 
L 1344 794 
L 1344 0 
L 684 0 
L 684 794 
z
" transform="scale(0.015625)"/>
      <path id="DejaVuSans-5c" d="M 2059 -325 
Q 1816 -950 1584 -1140 
Q 1353 -1331 966 -1331 
L 506 -1331 
L 506 -850 
L 844 -850 
Q 1081 -850 1212 -737 
Q 1344 -625 1503 -206 
L 1606 56 
L 191 3500 
L 800 3500 
L 1894 763 
L 2988 3500 
L 3597 3500 
L 2059 -325 
z
" transform="scale(0.015625)"/>
      <path id="DejaVuSans-47" d="M 2906 2969 
L 2906 4863 
L 3481 4863 
L 3481 0 
L 2906 0 
L 2906 525 
Q 2725 213 2448 61 
Q 2172 -91 1784 -91 
Q 1150 -91 751 415 
Q 353 922 353 1747 
Q 353 2572 751 3078 
Q 1150 3584 1784 3584 
Q 2172 3584 2448 3432 
Q 2725 3281 2906 2969 
z
M 947 1747 
Q 947 1113 1208 752 
Q 1469 391 1925 391 
Q 2381 391 2643 752 
Q 2906 1113 2906 1747 
Q 2906 2381 2643 2742 
Q 2381 3103 1925 3103 
Q 1469 3103 1208 2742 
Q 947 2381 947 1747 
z
" transform="scale(0.015625)"/>
      <path id="DejaVuSans-af6" d="M 313 1978 
L 6088 1978 
L 6088 1528 
L 313 1528 
L 313 1978 
z
" transform="scale(0.015625)"/>
      <path id="DejaVuSans-5a" d="M 269 3500 
L 844 3500 
L 1563 769 
L 2278 3500 
L 2956 3500 
L 3675 769 
L 4391 3500 
L 4966 3500 
L 4050 0 
L 3372 0 
L 2619 2869 
L 1863 0 
L 1184 0 
L 269 3500 
z
" transform="scale(0.015625)"/>
     </defs>
     <use xlink:href="#DejaVuSans-50"/>
     <use xlink:href="#DejaVuSans-54" transform="translate(97.40625 0)"/>
     <use xlink:href="#DejaVuSans-59" transform="translate(160.890625 0)"/>
     <use xlink:href="#DejaVuSans-53" transform="translate(220.078125 0)"/>
     <use xlink:href="#DejaVuSans-51" transform="translate(283.5625 0)"/>
     <use xlink:href="#DejaVuSans-3" transform="translate(346.9375 0)"/>
     <use xlink:href="#DejaVuSans-59" transform="translate(378.71875 0)"/>
     <use xlink:href="#DejaVuSans-13" transform="translate(437.90625 0)"/>
     <use xlink:href="#DejaVuSans-11" transform="translate(501.53125 0)"/>
     <use xlink:href="#DejaVuSans-1c" transform="translate(533.3125 0)"/>
     <use xlink:href="#DejaVuSans-11" transform="translate(596.9375 0)"/>
     <use xlink:href="#DejaVuSans-13" transform="translate(628.71875 0)"/>
     <use xlink:href="#DejaVuSans-3" transform="translate(692.34375 0)"/>
     <use xlink:href="#DejaVuSans-4b" transform="translate(724.125 0)"/>
     <use xlink:href="#DejaVuSans-5c" transform="translate(787.5 0)"/>
     <use xlink:href="#DejaVuSans-45" transform="translate(846.6875 0)"/>
     <use xlink:href="#DejaVuSans-55" transform="translate(910.171875 0)"/>
     <use xlink:href="#DejaVuSans-4c" transform="translate(951.28125 0)"/>
     <use xlink:href="#DejaVuSans-47" transform="translate(979.0625 0)"/>
     <use xlink:href="#DejaVuSans-3" transform="translate(1042.546875 0)"/>
     <use xlink:href="#DejaVuSans-37" transform="translate(1074.328125 0)"/>
     <use xlink:href="#DejaVuSans-26" transform="translate(1129.546875 0)"/>
     <use xlink:href="#DejaVuSans-33" transform="translate(1199.375 0)"/>
     <use xlink:href="#DejaVuSans-10" transform="translate(1257.46875 0)"/>
     <use xlink:href="#DejaVuSans-4f" transform="translate(1293.546875 0)"/>
     <use xlink:href="#DejaVuSans-44" transform="translate(1321.328125 0)"/>
     <use xlink:href="#DejaVuSans-51" transform="translate(1382.609375 0)"/>
     <use xlink:href="#DejaVuSans-48" transform="translate(1445.984375 0)"/>
     <use xlink:href="#DejaVuSans-3" transform="translate(1507.515625 0)"/>
     <use xlink:href="#DejaVuSans-af6" transform="translate(1539.296875 0)"/>
     <use xlink:href="#DejaVuSans-3" transform="translate(1639.296875 0)"/>
     <use xlink:href="#DejaVuSans-5a" transform="translate(1671.078125 0)"/>
     <use xlink:href="#DejaVuSans-4f" transform="translate(1752.859375 0)"/>
     <use xlink:href="#DejaVuSans-45" transform="translate(1780.640625 0)"/>
     <use xlink:href="#DejaVuSans-3" transform="translate(1844.125 0)"/>
     <use xlink:href="#DejaVuSans-56" transform="translate(1875.90625 0)"/>
     <use xlink:href="#DejaVuSans-46" transform="translate(1928 0)"/>
     <use xlink:href="#DejaVuSans-4b" transform="translate(1982.984375 0)"/>
     <use xlink:href="#DejaVuSans-48" transform="translate(2046.359375 0)"/>
     <use xlink:href="#DejaVuSans-47" transform="translate(2107.890625 0)"/>
     <use xlink:href="#DejaVuSans-58" transform="translate(2171.375 0)"/>
     <use xlink:href="#DejaVuSans-4f" transform="translate(2234.75 0)"/>
     <use xlink:href="#DejaVuSans-48" transform="translate(2262.53125 0)"/>
     <use xlink:href="#DejaVuSans-55" transform="translate(2324.0625 0)"/>
    </g>
    <!-- symmetric 2-path: 2×100 Mbit / 25 ms  (bars = mean of 3 reps, whiskers = min–max) -->
    <g transform="translate(57.852813 32.952686) scale(0.125 -0.125)">
     <defs>
      <path id="DejaVuSans-1d" d="M 750 794 
L 1409 794 
L 1409 0 
L 750 0 
L 750 794 
z
M 750 3309 
L 1409 3309 
L 1409 2516 
L 750 2516 
L 750 3309 
z
" transform="scale(0.015625)"/>
      <path id="DejaVuSans-12" d="M 1625 4666 
L 2156 4666 
L 531 -594 
L 0 -594 
L 1625 4666 
z
" transform="scale(0.015625)"/>
      <path id="DejaVuSans-f" d="M 750 794 
L 1409 794 
L 1409 256 
L 897 -744 
L 494 -744 
L 750 256 
L 750 794 
z
" transform="scale(0.015625)"/>
      <path id="DejaVuSans-4e" d="M 581 4863 
L 1159 4863 
L 1159 1991 
L 2875 3500 
L 3609 3500 
L 1753 1863 
L 3688 0 
L 2938 0 
L 1159 1709 
L 1159 0 
L 581 0 
L 581 4863 
z
" transform="scale(0.015625)"/>
      <path id="DejaVuSans-af5" d="M 313 1978 
L 2888 1978 
L 2888 1528 
L 313 1528 
L 313 1978 
z
" transform="scale(0.015625)"/>
      <path id="DejaVuSans-5b" d="M 3513 3500 
L 2247 1797 
L 3578 0 
L 2900 0 
L 1881 1375 
L 863 0 
L 184 0 
L 1544 1831 
L 300 3500 
L 978 3500 
L 1906 2253 
L 2834 3500 
L 3513 3500 
z
" transform="scale(0.015625)"/>
     </defs>
     <use xlink:href="#DejaVuSans-56"/>
     <use xlink:href="#DejaVuSans-5c" transform="translate(52.09375 0)"/>
     <use xlink:href="#DejaVuSans-50" transform="translate(111.28125 0)"/>
     <use xlink:href="#DejaVuSans-50" transform="translate(208.6875 0)"/>
     <use xlink:href="#DejaVuSans-48" transform="translate(306.09375 0)"/>
     <use xlink:href="#DejaVuSans-57" transform="translate(367.625 0)"/>
     <use xlink:href="#DejaVuSans-55" transform="translate(406.828125 0)"/>
     <use xlink:href="#DejaVuSans-4c" transform="translate(447.9375 0)"/>
     <use xlink:href="#DejaVuSans-46" transform="translate(475.71875 0)"/>
     <use xlink:href="#DejaVuSans-3" transform="translate(530.703125 0)"/>
     <use xlink:href="#DejaVuSans-15" transform="translate(562.484375 0)"/>
     <use xlink:href="#DejaVuSans-10" transform="translate(626.109375 0)"/>
     <use xlink:href="#DejaVuSans-53" transform="translate(662.1875 0)"/>
     <use xlink:href="#DejaVuSans-44" transform="translate(725.671875 0)"/>
     <use xlink:href="#DejaVuSans-57" transform="translate(786.953125 0)"/>
     <use xlink:href="#DejaVuSans-4b" transform="translate(826.15625 0)"/>
     <use xlink:href="#DejaVuSans-1d" transform="translate(889.53125 0)"/>
     <use xlink:href="#DejaVuSans-3" transform="translate(923.21875 0)"/>
     <use xlink:href="#DejaVuSans-15" transform="translate(955 0)"/>
     <use xlink:href="#DejaVuSans-99" transform="translate(1018.625 0)"/>
     <use xlink:href="#DejaVuSans-14" transform="translate(1102.421875 0)"/>
     <use xlink:href="#DejaVuSans-13" transform="translate(1166.046875 0)"/>
     <use xlink:href="#DejaVuSans-13" transform="translate(1229.671875 0)"/>
     <use xlink:href="#DejaVuSans-3" transform="translate(1293.296875 0)"/>
     <use xlink:href="#DejaVuSans-30" transform="translate(1325.078125 0)"/>
     <use xlink:href="#DejaVuSans-45" transform="translate(1411.359375 0)"/>
     <use xlink:href="#DejaVuSans-4c" transform="translate(1474.84375 0)"/>
     <use xlink:href="#DejaVuSans-57" transform="translate(1502.625 0)"/>
     <use xlink:href="#DejaVuSans-3" transform="translate(1541.828125 0)"/>
     <use xlink:href="#DejaVuSans-12" transform="translate(1573.609375 0)"/>
     <use xlink:href="#DejaVuSans-3" transform="translate(1607.296875 0)"/>
     <use xlink:href="#DejaVuSans-15" transform="translate(1639.078125 0)"/>
     <use xlink:href="#DejaVuSans-18" transform="translate(1702.703125 0)"/>
     <use xlink:href="#DejaVuSans-3" transform="translate(1766.328125 0)"/>
     <use xlink:href="#DejaVuSans-50" transform="translate(1798.109375 0)"/>
     <use xlink:href="#DejaVuSans-56" transform="translate(1895.515625 0)"/>
     <use xlink:href="#DejaVuSans-3" transform="translate(1947.609375 0)"/>
     <use xlink:href="#DejaVuSans-3" transform="translate(1979.390625 0)"/>
     <use xlink:href="#DejaVuSans-b" transform="translate(2011.171875 0)"/>
     <use xlink:href="#DejaVuSans-45" transform="translate(2050.1875 0)"/>
     <use xlink:href="#DejaVuSans-44" transform="translate(2113.671875 0)"/>
     <use xlink:href="#DejaVuSans-55" transform="translate(2174.953125 0)"/>
     <use xlink:href="#DejaVuSans-56" transform="translate(2216.0625 0)"/>
     <use xlink:href="#DejaVuSans-3" transform="translate(2268.15625 0)"/>
     <use xlink:href="#DejaVuSans-20" transform="translate(2299.9375 0)"/>
     <use xlink:href="#DejaVuSans-3" transform="translate(2383.734375 0)"/>
     <use xlink:href="#DejaVuSans-50" transform="translate(2415.515625 0)"/>
     <use xlink:href="#DejaVuSans-48" transform="translate(2512.921875 0)"/>
     <use xlink:href="#DejaVuSans-44" transform="translate(2574.453125 0)"/>
     <use xlink:href="#DejaVuSans-51" transform="translate(2635.734375 0)"/>
     <use xlink:href="#DejaVuSans-3" transform="translate(2699.109375 0)"/>
     <use xlink:href="#DejaVuSans-52" transform="translate(2730.890625 0)"/>
     <use xlink:href="#DejaVuSans-49" transform="translate(2792.078125 0)"/>
     <use xlink:href="#DejaVuSans-3" transform="translate(2827.28125 0)"/>
     <use xlink:href="#DejaVuSans-16" transform="translate(2859.0625 0)"/>
     <use xlink:href="#DejaVuSans-3" transform="translate(2922.6875 0)"/>
     <use xlink:href="#DejaVuSans-55" transform="translate(2954.46875 0)"/>
     <use xlink:href="#DejaVuSans-48" transform="translate(2993.375 0)"/>
     <use xlink:href="#DejaVuSans-53" transform="translate(3054.90625 0)"/>
     <use xlink:href="#DejaVuSans-56" transform="translate(3118.390625 0)"/>
     <use xlink:href="#DejaVuSans-f" transform="translate(3170.484375 0)"/>
     <use xlink:href="#DejaVuSans-3" transform="translate(3202.265625 0)"/>
     <use xlink:href="#DejaVuSans-5a" transform="translate(3234.046875 0)"/>
     <use xlink:href="#DejaVuSans-4b" transform="translate(3315.828125 0)"/>
     <use xlink:href="#DejaVuSans-4c" transform="translate(3379.203125 0)"/>
     <use xlink:href="#DejaVuSans-56" transform="translate(3406.984375 0)"/>
     <use xlink:href="#DejaVuSans-4e" transform="translate(3459.078125 0)"/>
     <use xlink:href="#DejaVuSans-48" transform="translate(3513.421875 0)"/>
     <use xlink:href="#DejaVuSans-55" transform="translate(3574.953125 0)"/>
     <use xlink:href="#DejaVuSans-56" transform="translate(3616.0625 0)"/>
     <use xlink:href="#DejaVuSans-3" transform="translate(3668.15625 0)"/>
     <use xlink:href="#DejaVuSans-20" transform="translate(3699.9375 0)"/>
     <use xlink:href="#DejaVuSans-3" transform="translate(3783.734375 0)"/>
     <use xlink:href="#DejaVuSans-50" transform="translate(3815.515625 0)"/>
     <use xlink:href="#DejaVuSans-4c" transform="translate(3912.921875 0)"/>
     <use xlink:href="#DejaVuSans-51" transform="translate(3940.703125 0)"/>
     <use xlink:href="#DejaVuSans-af5" transform="translate(4004.078125 0)"/>
     <use xlink:href="#DejaVuSans-50" transform="translate(4054.078125 0)"/>
     <use xlink:href="#DejaVuSans-44" transform="translate(4151.484375 0)"/>
     <use xlink:href="#DejaVuSans-5b" transform="translate(4212.765625 0)"/>
     <use xlink:href="#DejaVuSans-c" transform="translate(4271.953125 0)"/>
    </g>
   </g>
   <g id="LineCollection_1">
    <path d="M 93.900277 228.645568 
L 93.900277 227.681844 
" clip-path="url(#p21c598da0f)" style="fill: none; stroke: #222222"/>
    <path d="M 200.470178 104.967736 
L 200.470178 94.045538 
" clip-path="url(#p21c598da0f)" style="fill: none; stroke: #222222"/>
    <path d="M 307.040078 151.065837 
L 307.040078 95.009261 
" clip-path="url(#p21c598da0f)" style="fill: none; stroke: #222222"/>
    <path d="M 413.609979 103.682772 
L 413.609979 94.848641 
" clip-path="url(#p21c598da0f)" style="fill: none; stroke: #222222"/>
    <path d="M 520.17988 98.221672 
L 520.17988 95.651743 
" clip-path="url(#p21c598da0f)" style="fill: none; stroke: #222222"/>
   </g>
   <g id="line2d_25">
    <defs>
     <path id="m8813803b15" d="M 3 0 
L -3 -0 
" style="stroke: #222222"/>
    </defs>
    <g clip-path="url(#p21c598da0f)">
     <use xlink:href="#m8813803b15" x="93.900277" y="228.645568" style="fill: #1f77b4; stroke: #222222"/>
     <use xlink:href="#m8813803b15" x="200.470178" y="104.967736" style="fill: #1f77b4; stroke: #222222"/>
     <use xlink:href="#m8813803b15" x="307.040078" y="151.065837" style="fill: #1f77b4; stroke: #222222"/>
     <use xlink:href="#m8813803b15" x="413.609979" y="103.682772" style="fill: #1f77b4; stroke: #222222"/>
     <use xlink:href="#m8813803b15" x="520.17988" y="98.221672" style="fill: #1f77b4; stroke: #222222"/>
    </g>
   </g>
   <g id="line2d_26">
    <g clip-path="url(#p21c598da0f)">
     <use xlink:href="#m8813803b15" x="93.900277" y="227.681844" style="fill: #1f77b4; stroke: #222222"/>
     <use xlink:href="#m8813803b15" x="200.470178" y="94.045538" style="fill: #1f77b4; stroke: #222222"/>
     <use xlink:href="#m8813803b15" x="307.040078" y="95.009261" style="fill: #1f77b4; stroke: #222222"/>
     <use xlink:href="#m8813803b15" x="413.609979" y="94.848641" style="fill: #1f77b4; stroke: #222222"/>
     <use xlink:href="#m8813803b15" x="520.17988" y="95.651743" style="fill: #1f77b4; stroke: #222222"/>
    </g>
   </g>
   <g id="LineCollection_2">
    <path d="M 134.396839 83.444581 
L 134.396839 81.035272 
" clip-path="url(#p21c598da0f)" style="fill: none; stroke: #222222"/>
    <path d="M 240.96674 84.568925 
L 240.96674 82.802099 
" clip-path="url(#p21c598da0f)" style="fill: none; stroke: #222222"/>
    <path d="M 347.536641 82.480858 
L 347.536641 80.071549 
" clip-path="url(#p21c598da0f)" style="fill: none; stroke: #222222"/>
    <path d="M 454.106541 82.159616 
L 454.106541 79.750308 
" clip-path="url(#p21c598da0f)" style="fill: none; stroke: #222222"/>
    <path d="M 560.676442 81.035272 
L 560.676442 80.23217 
" clip-path="url(#p21c598da0f)" style="fill: none; stroke: #222222"/>
   </g>
   <g id="line2d_27">
    <g clip-path="url(#p21c598da0f)">
     <use xlink:href="#m8813803b15" x="134.396839" y="83.444581" style="fill: #1f77b4; stroke: #222222"/>
     <use xlink:href="#m8813803b15" x="240.96674" y="84.568925" style="fill: #1f77b4; stroke: #222222"/>
     <use xlink:href="#m8813803b15" x="347.536641" y="82.480858" style="fill: #1f77b4; stroke: #222222"/>
     <use xlink:href="#m8813803b15" x="454.106541" y="82.159616" style="fill: #1f77b4; stroke: #222222"/>
     <use xlink:href="#m8813803b15" x="560.676442" y="81.035272" style="fill: #1f77b4; stroke: #222222"/>
    </g>
   </g>
   <g id="line2d_28">
    <g clip-path="url(#p21c598da0f)">
     <use xlink:href="#m8813803b15" x="134.396839" y="81.035272" style="fill: #1f77b4; stroke: #222222"/>
     <use xlink:href="#m8813803b15" x="240.96674" y="82.802099" style="fill: #1f77b4; stroke: #222222"/>
     <use xlink:href="#m8813803b15" x="347.536641" y="80.071549" style="fill: #1f77b4; stroke: #222222"/>
     <use xlink:href="#m8813803b15" x="454.106541" y="79.750308" style="fill: #1f77b4; stroke: #222222"/>
     <use xlink:href="#m8813803b15" x="560.676442" y="80.23217" style="fill: #1f77b4; stroke: #222222"/>
    </g>
   </g>
   <g id="legend_1">
    <g id="patch_17">
     <path d="M 154.245117 435.466948 
L 500.331602 435.466948 
Q 502.231602 435.466948 502.231602 433.566948 
L 502.231602 420.266206 
Q 502.231602 418.366206 500.331602 418.366206 
L 154.245117 418.366206 
Q 152.345117 418.366206 152.345117 420.266206 
L 152.345117 433.566948 
Q 152.345117 435.466948 154.245117 435.466948 
z
" style="fill: #ffffff; opacity: 0.95; stroke: #cccccc; stroke-linejoin: miter"/>
    </g>
    <g id="patch_18">
     <path d="M 156.145117 429.384721 
L 175.145117 429.384721 
L 175.145117 422.734721 
L 156.145117 422.734721 
z
" style="fill: url(#h458f0d2a82); stroke: #5a5a5a; stroke-linejoin: miter"/>
    </g>
    <g id="text_34">
     <!-- hybrid OFF  (raw multipath) -->
     <g transform="translate(182.745117 429.384721) scale(0.095 -0.095)">
      <defs>
       <path id="DejaVuSans-32" d="M 2522 4238 
Q 1834 4238 1429 3725 
Q 1025 3213 1025 2328 
Q 1025 1447 1429 934 
Q 1834 422 2522 422 
Q 3209 422 3611 934 
Q 4013 1447 4013 2328 
Q 4013 3213 3611 3725 
Q 3209 4238 2522 4238 
z
M 2522 4750 
Q 3503 4750 4090 4092 
Q 4678 3434 4678 2328 
Q 4678 1225 4090 567 
Q 3503 -91 2522 -91 
Q 1538 -91 948 565 
Q 359 1222 359 2328 
Q 359 3434 948 4092 
Q 1538 4750 2522 4750 
z
" transform="scale(0.015625)"/>
       <path id="DejaVuSans-29" d="M 628 4666 
L 3309 4666 
L 3309 4134 
L 1259 4134 
L 1259 2759 
L 3109 2759 
L 3109 2228 
L 1259 2228 
L 1259 0 
L 628 0 
L 628 4666 
z
" transform="scale(0.015625)"/>
      </defs>
      <use xlink:href="#DejaVuSans-4b"/>
      <use xlink:href="#DejaVuSans-5c" transform="translate(63.375 0)"/>
      <use xlink:href="#DejaVuSans-45" transform="translate(122.5625 0)"/>
      <use xlink:href="#DejaVuSans-55" transform="translate(186.046875 0)"/>
      <use xlink:href="#DejaVuSans-4c" transform="translate(227.15625 0)"/>
      <use xlink:href="#DejaVuSans-47" transform="translate(254.9375 0)"/>
      <use xlink:href="#DejaVuSans-3" transform="translate(318.421875 0)"/>
      <use xlink:href="#DejaVuSans-32" transform="translate(350.203125 0)"/>
      <use xlink:href="#DejaVuSans-29" transform="translate(428.921875 0)"/>
      <use xlink:href="#DejaVuSans-29" transform="translate(486.4375 0)"/>
      <use xlink:href="#DejaVuSans-3" transform="translate(543.953125 0)"/>
      <use xlink:href="#DejaVuSans-3" transform="translate(575.734375 0)"/>
      <use xlink:href="#DejaVuSans-b" transform="translate(607.515625 0)"/>
      <use xlink:href="#DejaVuSans-55" transform="translate(646.53125 0)"/>
      <use xlink:href="#DejaVuSans-44" transform="translate(687.640625 0)"/>
      <use xlink:href="#DejaVuSans-5a" transform="translate(748.921875 0)"/>
      <use xlink:href="#DejaVuSans-3" transform="translate(830.703125 0)"/>
      <use xlink:href="#DejaVuSans-50" transform="translate(862.484375 0)"/>
      <use xlink:href="#DejaVuSans-58" transform="translate(959.890625 0)"/>
      <use xlink:href="#DejaVuSans-4f" transform="translate(1023.265625 0)"/>
      <use xlink:href="#DejaVuSans-57" transform="translate(1051.046875 0)"/>
      <use xlink:href="#DejaVuSans-4c" transform="translate(1090.25 0)"/>
      <use xlink:href="#DejaVuSans-53" transform="translate(1118.03125 0)"/>
      <use xlink:href="#DejaVuSans-44" transform="translate(1181.515625 0)"/>
      <use xlink:href="#DejaVuSans-57" transform="translate(1242.796875 0)"/>
      <use xlink:href="#DejaVuSans-4b" transform="translate(1282 0)"/>
      <use xlink:href="#DejaVuSans-c" transform="translate(1345.375 0)"/>
     </g>
    </g>
    <g id="patch_19">
     <path d="M 333.262227 429.384721 
L 352.262227 429.384721 
L 352.262227 422.734721 
L 333.262227 422.734721 
z
" style="fill: #1f77b4; stroke: #124c74; stroke-linejoin: miter"/>
    </g>
    <g id="text_35">
     <!-- hybrid ON  (TCP stream lane) -->
     <g transform="translate(359.862227 429.384721) scale(0.095 -0.095)">
      <defs>
       <path id="DejaVuSans-31" d="M 628 4666 
L 1478 4666 
L 3547 763 
L 3547 4666 
L 4159 4666 
L 4159 0 
L 3309 0 
L 1241 3903 
L 1241 0 
L 628 0 
L 628 4666 
z
" transform="scale(0.015625)"/>
      </defs>
      <use xlink:href="#DejaVuSans-4b"/>
      <use xlink:href="#DejaVuSans-5c" transform="translate(63.375 0)"/>
      <use xlink:href="#DejaVuSans-45" transform="translate(122.5625 0)"/>
      <use xlink:href="#DejaVuSans-55" transform="translate(186.046875 0)"/>
      <use xlink:href="#DejaVuSans-4c" transform="translate(227.15625 0)"/>
      <use xlink:href="#DejaVuSans-47" transform="translate(254.9375 0)"/>
      <use xlink:href="#DejaVuSans-3" transform="translate(318.421875 0)"/>
      <use xlink:href="#DejaVuSans-32" transform="translate(350.203125 0)"/>
      <use xlink:href="#DejaVuSans-31" transform="translate(428.921875 0)"/>
      <use xlink:href="#DejaVuSans-3" transform="translate(503.734375 0)"/>
      <use xlink:href="#DejaVuSans-3" transform="translate(535.515625 0)"/>
      <use xlink:href="#DejaVuSans-b" transform="translate(567.296875 0)"/>
      <use xlink:href="#DejaVuSans-37" transform="translate(606.3125 0)"/>
      <use xlink:href="#DejaVuSans-26" transform="translate(661.53125 0)"/>
      <use xlink:href="#DejaVuSans-33" transform="translate(731.359375 0)"/>
      <use xlink:href="#DejaVuSans-3" transform="translate(791.65625 0)"/>
      <use xlink:href="#DejaVuSans-56" transform="translate(823.4375 0)"/>
      <use xlink:href="#DejaVuSans-57" transform="translate(875.53125 0)"/>
      <use xlink:href="#DejaVuSans-55" transform="translate(914.734375 0)"/>
      <use xlink:href="#DejaVuSans-48" transform="translate(953.640625 0)"/>
      <use xlink:href="#DejaVuSans-44" transform="translate(1015.171875 0)"/>
      <use xlink:href="#DejaVuSans-50" transform="translate(1076.453125 0)"/>
      <use xlink:href="#DejaVuSans-3" transform="translate(1173.859375 0)"/>
      <use xlink:href="#DejaVuSans-4f" transform="translate(1205.640625 0)"/>
      <use xlink:href="#DejaVuSans-44" transform="translate(1233.421875 0)"/>
      <use xlink:href="#DejaVuSans-51" transform="translate(1294.703125 0)"/>
      <use xlink:href="#DejaVuSans-48" transform="translate(1358.078125 0)"/>
      <use xlink:href="#DejaVuSans-c" transform="translate(1419.609375 0)"/>
     </g>
    </g>
   </g>
  </g>
 </g>
 <defs>
  <clipPath id="p21c598da0f">
   <rect x="48.288359" y="38.952686" width="558" height="343.728"/>
  </clipPath>
 </defs>
 <defs>
  <pattern id="h458f0d2a82" patternUnits="userSpaceOnUse" x="0" y="0" width="72" height="72">
   <rect x="0" y="0" width="73" height="73" fill="#c7c7c7"/>
   <path d="M -36 36 
L 36 -36 
M -30 42 
L 42 -30 
M -24 48 
L 48 -24 
M -18 54 
L 54 -18 
M -12 60 
L 60 -12 
M -6 66 
L 66 -6 
M 0 72 
L 72 0 
M 6 78 
L 78 6 
M 12 84 
L 84 12 
M 18 90 
L 90 18 
M 24 96 
L 96 24 
M 30 102 
L 102 30 
M 36 108 
L 108 36 
" style="fill: #5a5a5a; stroke: #5a5a5a; stroke-width: 1.0; stroke-linecap: butt; stroke-linejoin: miter"/>
  </pattern>
 </defs>
</svg>
